<svg xmlns="http://www.w3.org/2000/svg" viewBox="0 0 512 512"><defs/><path fill="#ffff4d" d="M401 435.101v39.624H115.8c-5.47 0-10.42-2.211-14-5.804-3.58-3.582-5.8-8.535-5.8-14.008 0-10.936 8.86-19.812 19.8-19.812z"/><path fill="#ffe150" d="M371.86 435.101H401v39.624h-29.14z"/><path fill="#53f46e" d="M423.5 7.505v427.596H115.8l-27.3 19.812V27.316C88.5 12.257 100.75 0 115.8 0H416c4.14 0 7.5 3.362 7.5 7.505z"/><path fill="#33e279" d="M423.5 7.505v427.596H115.8l-27.3 19.812v-47.078h286.92c12.61 0 22.82-10.216 22.82-22.834V0H416c4.14 0 7.5 3.362 7.5 7.505z"/><path fill="#46637f" d="M135.71 0v435.101H115.8l-27.3 19.812V27.316C88.5 12.257 100.75 0 115.8 0z"/><path fill="#234063" d="M135.71 407.835v27.266H115.8l-27.3 19.812v-47.078z"/><path fill="#1cc454" d="M416 467.221H115.798c-6.781 0-12.298-5.52-12.298-12.306 0-6.785 5.517-12.306 12.298-12.306H416c4.143 0 7.5-3.36 7.5-7.504 0-4.145-3.357-7.505-7.5-7.505H115.798c-15.052 0-27.298 12.253-27.298 27.315s12.246 27.315 27.298 27.315H416c4.143 0 7.5-3.36 7.5-7.504 0-4.145-3.357-7.505-7.5-7.505z"/><path fill="#ff7680" d="M343.42 442.605v64.409c0 3.752-3.99 6.154-7.3 4.403l-19.08-10.096-19.09 10.096c-3.31 1.751-7.29-.65-7.29-4.403v-64.409z"/><path fill="#f44d90" d="M343.42 442.605v64.409c0 3.752-3.99 6.154-7.3 4.403l-19.08-10.096v-58.715h26.38z"/><g fill="#46637f"><path d="M344.233 324.793h-140c-4.143 0-7.5 3.36-7.5 7.505s3.357 7.504 7.5 7.504h140c4.143 0 7.5-3.36 7.5-7.504 0-4.145-3.357-7.505-7.5-7.505zM309.344 354.832h-70.221c-4.143 0-7.5 3.36-7.5 7.504 0 4.145 3.357 7.505 7.5 7.505h70.221c4.143 0 7.5-3.36 7.5-7.505 0-4.144-3.358-7.504-7.5-7.504z"/></g><path fill="#ff7680" d="M366.08 162.397c0 39.944-26.08 75.465-63.83 87.553l-21.29 43.286c-1.26 2.561-3.87 4.193-6.73 4.193-2.85 0-5.46-1.631-6.73-4.193l-21.28-43.286c-37.75-12.087-63.83-47.609-63.83-87.553 0-46.948 35.38-85.801 80.86-91.245 3.6-.44 7.26-.66 10.98-.66 50.65 0 91.85 41.235 91.85 91.905z"/><path fill="#eef7ff" d="M314.68 162.397c0 22.323-18.14 40.474-40.45 40.474-3.18 0-6.28-.37-9.25-1.071-17.86-4.192-31.2-20.262-31.2-39.404 0-19.131 13.34-35.211 31.2-39.404 2.97-.7 6.07-1.071 9.25-1.071 22.31.002 40.45 18.163 40.45 40.476z"/><path fill="#d8e5ef" d="M314.68 162.397c0 22.323-18.14 40.474-40.45 40.474-3.18 0-6.28-.37-9.25-1.071 17.86-4.202 31.19-20.272 31.19-39.404 0-19.121-13.33-35.201-31.19-39.404 2.97-.7 6.07-1.071 9.25-1.071 22.31.002 40.45 18.163 40.45 40.476z"/><path fill="#f44d90" d="M366.08 162.397c0 39.944-26.08 75.465-63.83 87.553l-21.29 43.286c-1.26 2.561-3.87 4.193-6.73 4.193l8.15-48.189c35.92-12.488 61.7-46.648 61.7-86.842 0-47.018-35.3-85.801-80.83-91.245 3.6-.44 7.26-.66 10.98-.66 50.65-.001 91.85 41.234 91.85 91.904z"/></svg>